<svg id="FizzBuzzLogo" xmlns="http://www.w3.org/2000/svg" width="539.43" height="544.855" viewBox="0 0 539.43 544.855">
  <g id="bubbles" transform="translate(0.465)">
    <g id="bubbles-2" data-name="bubbles" transform="translate(0 67.001)">
      <g id="Component_4_1" data-name="Component 4 – 1" transform="translate(96.938 190.678) rotate(-11)">
        <ellipse id="Ellipse_1" data-name="Ellipse 1" cx="22.297" cy="21.903" rx="22.297" ry="21.903" transform="translate(83.46 147.107)" fill="#5499b8" opacity="0.27"/>
        <ellipse id="Ellipse_2" data-name="Ellipse 2" cx="17.873" cy="15.92" rx="17.873" ry="15.92" transform="translate(209.876)" fill="#5499b8" opacity="0.27"/>
        <circle id="Ellipse_3" data-name="Ellipse 3" cx="23" cy="23" r="23" transform="translate(61.995 21)" fill="#5499b8" opacity="0.27"/>
        <ellipse id="Ellipse_4" data-name="Ellipse 4" cx="17" cy="15.5" rx="17" ry="15.5" transform="translate(137.004 49.204)" fill="#5499b8" opacity="0.27"/>
        <ellipse id="Ellipse_5" data-name="Ellipse 5" cx="17" cy="15.5" rx="17" ry="15.5" transform="translate(0 57.032)" fill="#5499b8" opacity="0.27"/>
        <ellipse id="Ellipse_6" data-name="Ellipse 6" cx="8" cy="6.5" rx="8" ry="6.5" transform="translate(60.111 82.879)" fill="#5499b8" opacity="0.27"/>
        <ellipse id="Ellipse_9" data-name="Ellipse 9" cx="8" cy="6.5" rx="8" ry="6.5" transform="translate(175.523 160.913)" fill="#5499b8" opacity="0.27"/>
        <ellipse id="Ellipse_10" data-name="Ellipse 10" cx="8" cy="6.5" rx="8" ry="6.5" transform="translate(156.288 127.081)" fill="#5499b8" opacity="0.27"/>
        <ellipse id="Ellipse_8" data-name="Ellipse 8" cx="8" cy="6.5" rx="8" ry="6.5" transform="translate(18 112.715)" fill="#5499b8" opacity="0.27"/>
      </g>
      <g id="Group_6" data-name="Group 6" transform="translate(140.418 60.521) rotate(-17)" opacity="0.43">
        <g id="Component_3_1" data-name="Component 3 – 1" transform="translate(0 0)">
          <ellipse id="Ellipse_1-2" data-name="Ellipse 1" cx="13.414" cy="14.716" rx="13.414" ry="14.716" transform="translate(80 345.888)" fill="#5499b8" opacity="0.27"/>
          <ellipse id="Ellipse_2-2" data-name="Ellipse 2" cx="30.5" cy="29.5" rx="30.5" ry="29.5" transform="translate(0 0)" fill="#5499b8" opacity="0.27"/>
          <circle id="Ellipse_3-2" data-name="Ellipse 3" cx="23" cy="23" r="23" transform="translate(111 21)" fill="#5499b8" opacity="0.27"/>
          <ellipse id="Ellipse_4-2" data-name="Ellipse 4" cx="17" cy="15.5" rx="17" ry="15.5" transform="translate(61 105.944)" fill="#5499b8" opacity="0.27"/>
          <ellipse id="Ellipse_5-2" data-name="Ellipse 5" cx="17" cy="15.5" rx="17" ry="15.5" transform="translate(173 122.799)" fill="#5499b8" opacity="0.27"/>
          <ellipse id="Ellipse_6-2" data-name="Ellipse 6" cx="8" cy="6.5" rx="8" ry="6.5" transform="translate(141 168.782)" fill="#5499b8" opacity="0.27"/>
          <ellipse id="Ellipse_9-2" data-name="Ellipse 9" cx="8" cy="6.5" rx="8" ry="6.5" transform="translate(45 345.319)" fill="#5499b8" opacity="0.27"/>
          <ellipse id="Ellipse_10-2" data-name="Ellipse 10" cx="8" cy="6.5" rx="8" ry="6.5" transform="translate(61 258.799)" fill="#5499b8" opacity="0.27"/>
          <ellipse id="Ellipse_8-2" data-name="Ellipse 8" cx="8" cy="6.5" rx="8" ry="6.5" transform="translate(173 229.544)" fill="#5499b8" opacity="0.27"/>
        </g>
      </g>
      <g id="Component_5_1" data-name="Component 5 – 1" transform="translate(0 1.462)">
        <g id="Group_5" data-name="Group 5" transform="translate(223.237 424.429) rotate(-100)" opacity="0.57">
          <g id="Component_2_1" data-name="Component 2 – 1" transform="translate(35.083 22.423)">
            <path id="Path_1" data-name="Path 1" d="M11.443.451c6.244.187,11.424,6,11.571,12.983s-4.8,12.493-11.041,12.306S.548,19.74.4,12.757,5.2.264,11.443.451Z" transform="translate(163.171 179.264)" fill="#5499b8" opacity="0.27"/>
            <path id="Path_2" data-name="Path 2" d="M12.575.451a13.1,13.1,0,0,1,12.757,12.51A11.607,11.607,0,0,1,13.159,24.819,13.1,13.1,0,0,1,.4,12.309,11.607,11.607,0,0,1,12.575.451Z" transform="translate(-0.399 10.682)" fill="#5499b8" opacity="0.27"/>
            <path id="Path_3" data-name="Path 3" d="M22.23.344a23.844,23.844,0,0,1,23,23,21.128,21.128,0,0,1-21.912,21.84,23.844,23.844,0,0,1-23-23A21.128,21.128,0,0,1,22.23.344Z" transform="translate(209.66 -0.337)" fill="#5499b8" opacity="0.27"/>
            <path id="Path_4" data-name="Path 4" d="M16.48.255c9.186.236,16.8,7.176,17,15.5S26.4,30.634,17.214,30.4s-16.8-7.176-17-15.5S7.294.018,16.48.255Z" transform="translate(99.145 55.66)" fill="#5499b8" opacity="0.27"/>
            <path id="Path_5" data-name="Path 5" d="M16.48.255c9.186.236,16.8,7.176,17,15.5S26.4,30.634,17.214,30.4s-16.8-7.176-17-15.5S7.294.018,16.48.255Z" transform="translate(318.116 72.877)" fill="#5499b8" opacity="0.27"/>
            <path id="Path_6" data-name="Path 6" d="M7.782.12c4.333.111,7.915,3.021,8,6.5s-3.359,6.208-7.692,6.1S.175,9.7.089,6.217,3.448.009,7.782.12Z" transform="translate(241.084 94.996)" fill="#5499b8" opacity="0.27"/>
            <path id="Path_7" data-name="Path 7" d="M7.782.12c4.333.111,7.915,3.021,8,6.5s-3.359,6.208-7.692,6.1S.175,9.7.089,6.217,3.448.009,7.782.12Z" transform="translate(59.878 196.419)" fill="#5499b8" opacity="0.27"/>
            <path id="Path_8" data-name="Path 8" d="M7.782.12c4.333.111,7.915,3.021,8,6.5s-3.359,6.208-7.692,6.1S.175,9.7.089,6.217,3.448.009,7.782.12Z" transform="translate(89.774 146.337)" fill="#5499b8" opacity="0.27"/>
            <path id="Path_9" data-name="Path 9" d="M7.782.12c4.333.111,7.915,3.021,8,6.5s-3.359,6.208-7.692,6.1S.175,9.7.089,6.217,3.448.009,7.782.12Z" transform="translate(319.819 135.297)" fill="#5499b8" opacity="0.27"/>
          </g>
        </g>
        <g id="Group_2" data-name="Group 2" transform="matrix(0.454, -0.891, 0.891, 0.454, 0, 291.644)">
          <ellipse id="Ellipse_1-3" data-name="Ellipse 1" cx="30.5" cy="29.5" rx="30.5" ry="29.5" transform="translate(145.928 0)" fill="rgba(19,133,233,0.45)" opacity="0.27"/>
          <ellipse id="Ellipse_2-3" data-name="Ellipse 2" cx="30.5" cy="29.5" rx="30.5" ry="29.5" transform="translate(0 115)" fill="rgba(19,133,233,0.45)" opacity="0.27"/>
          <circle id="Ellipse_3-3" data-name="Ellipse 3" cx="23" cy="23" r="23" transform="translate(193.953 107)" fill="rgba(19,133,233,0.45)" opacity="0.27"/>
          <ellipse id="Ellipse_4-3" data-name="Ellipse 4" cx="17" cy="15.5" rx="17" ry="15.5" transform="translate(103.425 99)" fill="rgba(19,133,233,0.45)" opacity="0.27"/>
          <ellipse id="Ellipse_5-3" data-name="Ellipse 5" cx="17" cy="15.5" rx="17" ry="15.5" transform="translate(293.319 92)" fill="rgba(19,133,233,0.45)" opacity="0.27"/>
          <ellipse id="Ellipse_6-3" data-name="Ellipse 6" cx="8" cy="6.5" rx="8" ry="6.5" transform="translate(229.822 86)" fill="rgba(19,133,233,0.45)" opacity="0.27"/>
          <ellipse id="Ellipse_9-3" data-name="Ellipse 9" cx="8" cy="6.5" rx="8" ry="6.5" transform="translate(73.347 17)" fill="rgba(19,133,233,0.45)" opacity="0.27"/>
          <ellipse id="Ellipse_10-3" data-name="Ellipse 10" cx="8" cy="6.5" rx="8" ry="6.5" transform="translate(99.427 46)" fill="rgba(19,133,233,0.45)" opacity="0.27"/>
          <ellipse id="Ellipse_8-3" data-name="Ellipse 8" cx="8" cy="6.5" rx="8" ry="6.5" transform="translate(293.319 59)" fill="rgba(19,133,233,0.45)" opacity="0.27"/>
        </g>
        <g id="Group_7" data-name="Group 7" transform="translate(51.175 192.907) rotate(-69)">
          <ellipse id="Ellipse_1-4" data-name="Ellipse 1" cx="30.5" cy="29.5" rx="30.5" ry="29.5" transform="translate(66 0)" fill="rgba(19,133,233,0.45)" opacity="0.27"/>
          <ellipse id="Ellipse_2-4" data-name="Ellipse 2" cx="30.5" cy="29.5" rx="30.5" ry="29.5" transform="translate(0 182)" fill="rgba(19,133,233,0.45)" opacity="0.27"/>
          <circle id="Ellipse_3-4" data-name="Ellipse 3" cx="23" cy="23" r="23" transform="translate(93 174)" fill="rgba(19,133,233,0.45)" opacity="0.27"/>
          <ellipse id="Ellipse_4-4" data-name="Ellipse 4" cx="17" cy="15.5" rx="17" ry="15.5" transform="translate(52 145)" fill="rgba(19,133,233,0.45)" opacity="0.27"/>
          <ellipse id="Ellipse_5-4" data-name="Ellipse 5" cx="17" cy="15.5" rx="17" ry="15.5" transform="translate(147 135)" fill="rgba(19,133,233,0.45)" opacity="0.27"/>
          <ellipse id="Ellipse_6-4" data-name="Ellipse 6" cx="8" cy="6.5" rx="8" ry="6.5" transform="translate(122 122)" fill="rgba(19,133,233,0.45)" opacity="0.27"/>
          <ellipse id="Ellipse_9-4" data-name="Ellipse 9" cx="8" cy="6.5" rx="8" ry="6.5" transform="translate(39 17)" fill="rgba(19,133,233,0.45)" opacity="0.27"/>
          <ellipse id="Ellipse_10-4" data-name="Ellipse 10" cx="8" cy="6.5" rx="8" ry="6.5" transform="translate(53 65)" fill="rgba(19,133,233,0.45)" opacity="0.27"/>
          <ellipse id="Ellipse_8-4" data-name="Ellipse 8" cx="8" cy="6.5" rx="8" ry="6.5" transform="translate(147 83)" fill="rgba(19,133,233,0.45)" opacity="0.27"/>
        </g>
        <g id="Group_3" data-name="Group 3" transform="translate(5.186 221.952) rotate(-11)">
          <ellipse id="Ellipse_1-5" data-name="Ellipse 1" cx="30.5" cy="29.5" rx="30.5" ry="29.5" transform="translate(119 92)" fill="#b4e1f5" opacity="0.27"/>
          <ellipse id="Ellipse_2-5" data-name="Ellipse 2" cx="30.5" cy="29.5" rx="30.5" ry="29.5" transform="translate(0 0)" fill="#b4e1f5" opacity="0.27"/>
          <circle id="Ellipse_3-5" data-name="Ellipse 3" cx="23" cy="23" r="23" transform="translate(161 21)" fill="#b4e1f5" opacity="0.27"/>
          <ellipse id="Ellipse_4-5" data-name="Ellipse 4" cx="17" cy="15.5" rx="17" ry="15.5" transform="translate(86 37)" fill="#b4e1f5" opacity="0.27"/>
          <ellipse id="Ellipse_5-5" data-name="Ellipse 5" cx="17" cy="15.5" rx="17" ry="15.5" transform="translate(245 43)" fill="#b4e1f5" opacity="0.27"/>
          <ellipse id="Ellipse_6-5" data-name="Ellipse 6" cx="8" cy="6.5" rx="8" ry="6.5" transform="translate(194 64)" fill="#b4e1f5" opacity="0.27"/>
          <ellipse id="Ellipse_9-5" data-name="Ellipse 9" cx="8" cy="6.5" rx="8" ry="6.5" transform="translate(62 121)" fill="#b4e1f5" opacity="0.27"/>
          <ellipse id="Ellipse_10-5" data-name="Ellipse 10" cx="8" cy="6.5" rx="8" ry="6.5" transform="translate(84 99)" fill="#b4e1f5" opacity="0.27"/>
          <ellipse id="Ellipse_8-5" data-name="Ellipse 8" cx="8" cy="6.5" rx="8" ry="6.5" transform="translate(245 87)" fill="#b4e1f5" opacity="0.27"/>
        </g>
      </g>
      <g id="Component_1_1" data-name="Component 1 – 1" transform="translate(142.326 153.884) rotate(-11)">
        <ellipse id="Ellipse_1-6" data-name="Ellipse 1" cx="30.5" cy="29.5" rx="30.5" ry="29.5" transform="translate(80 105)" fill="#b4e1f5" opacity="0.27"/>
        <ellipse id="Ellipse_2-6" data-name="Ellipse 2" cx="25" cy="24.5" rx="25" ry="24.5" fill="#b4e1f5" opacity="0.27"/>
        <circle id="Ellipse_3-6" data-name="Ellipse 3" cx="23" cy="23" r="23" transform="translate(111 11)" fill="#b4e1f5" opacity="0.27"/>
        <ellipse id="Ellipse_4-6" data-name="Ellipse 4" cx="17" cy="15.5" rx="17" ry="15.5" transform="translate(61 34)" fill="#b4e1f5" opacity="0.27"/>
        <ellipse id="Ellipse_5-6" data-name="Ellipse 5" cx="17" cy="15.5" rx="17" ry="15.5" transform="translate(173 41)" fill="#b4e1f5" opacity="0.27"/>
        <ellipse id="Ellipse_6-6" data-name="Ellipse 6" cx="8" cy="6.5" rx="8" ry="6.5" transform="translate(141 65)" fill="#b4e1f5" opacity="0.27"/>
        <ellipse id="Ellipse_9-6" data-name="Ellipse 9" cx="8" cy="6.5" rx="8" ry="6.5" transform="translate(45 134)" fill="#b4e1f5" opacity="0.27"/>
        <ellipse id="Ellipse_10-6" data-name="Ellipse 10" cx="8" cy="6.5" rx="8" ry="6.5" transform="translate(61 105)" fill="#b4e1f5" opacity="0.27"/>
        <ellipse id="Ellipse_8-6" data-name="Ellipse 8" cx="8" cy="6.5" rx="8" ry="6.5" transform="translate(173 92)" fill="#b4e1f5" opacity="0.27"/>
      </g>
    </g>
    <g id="bubbles-3" data-name="bubbles" transform="translate(78.481 529.421) rotate(-88)">
      <g id="Component_4_1-2" data-name="Component 4 – 1" transform="translate(122.839 207.942) rotate(-11)">
        <ellipse id="Ellipse_1-7" data-name="Ellipse 1" cx="22.297" cy="21.903" rx="22.297" ry="21.903" transform="translate(83.46 147.107)" fill="#5499b8" opacity="0.27"/>
        <ellipse id="Ellipse_2-7" data-name="Ellipse 2" cx="17.873" cy="15.92" rx="17.873" ry="15.92" transform="translate(209.876)" fill="#5499b8" opacity="0.27"/>
        <circle id="Ellipse_3-7" data-name="Ellipse 3" cx="23" cy="23" r="23" transform="translate(61.995 21)" fill="#5499b8" opacity="0.27"/>
        <ellipse id="Ellipse_4-7" data-name="Ellipse 4" cx="17" cy="15.5" rx="17" ry="15.5" transform="translate(137.004 49.204)" fill="#5499b8" opacity="0.27"/>
        <ellipse id="Ellipse_5-7" data-name="Ellipse 5" cx="17" cy="15.5" rx="17" ry="15.5" transform="translate(0 57.032)" fill="#5499b8" opacity="0.27"/>
        <ellipse id="Ellipse_6-7" data-name="Ellipse 6" cx="8" cy="6.5" rx="8" ry="6.5" transform="translate(60.111 82.879)" fill="#5499b8" opacity="0.27"/>
        <ellipse id="Ellipse_9-7" data-name="Ellipse 9" cx="8" cy="6.5" rx="8" ry="6.5" transform="translate(175.523 160.913)" fill="#5499b8" opacity="0.27"/>
        <ellipse id="Ellipse_10-7" data-name="Ellipse 10" cx="8" cy="6.5" rx="8" ry="6.5" transform="translate(156.288 127.081)" fill="#5499b8" opacity="0.27"/>
        <ellipse id="Ellipse_8-7" data-name="Ellipse 8" cx="8" cy="6.5" rx="8" ry="6.5" transform="translate(18 112.715)" fill="#5499b8" opacity="0.27"/>
      </g>
      <g id="Group_6-2" data-name="Group 6" transform="translate(140.418 77.785) rotate(-17)" opacity="0.43">
        <g id="Component_3_1-2" data-name="Component 3 – 1" transform="translate(59.049 5.815)">
          <ellipse id="Ellipse_1-8" data-name="Ellipse 1" cx="13.414" cy="14.716" rx="13.414" ry="14.716" transform="translate(88.446 363.941)" fill="#5499b8" opacity="0.27"/>
          <ellipse id="Ellipse_2-8" data-name="Ellipse 2" cx="30.5" cy="29.5" rx="30.5" ry="29.5" transform="translate(0 0)" fill="#5499b8" opacity="0.27"/>
          <circle id="Ellipse_3-8" data-name="Ellipse 3" cx="23" cy="23" r="23" transform="translate(124.114 21)" fill="#5499b8" opacity="0.27"/>
          <ellipse id="Ellipse_4-8" data-name="Ellipse 4" cx="17" cy="15.5" rx="17" ry="15.5" transform="translate(67.707 111.499)" fill="#5499b8" opacity="0.27"/>
          <ellipse id="Ellipse_5-8" data-name="Ellipse 5" cx="17" cy="15.5" rx="17" ry="15.5" transform="translate(192.021 129.238)" fill="#5499b8" opacity="0.27"/>
          <ellipse id="Ellipse_6-8" data-name="Ellipse 6" cx="8" cy="6.5" rx="8" ry="6.5" transform="translate(155.042 177.192)" fill="#5499b8" opacity="0.27"/>
          <ellipse id="Ellipse_9-8" data-name="Ellipse 9" cx="8" cy="6.5" rx="8" ry="6.5" transform="translate(49.481 363.372)" fill="#5499b8" opacity="0.27"/>
          <ellipse id="Ellipse_10-8" data-name="Ellipse 10" cx="8" cy="6.5" rx="8" ry="6.5" transform="translate(67.075 271.695)" fill="#5499b8" opacity="0.27"/>
          <ellipse id="Ellipse_8-8" data-name="Ellipse 8" cx="8" cy="6.5" rx="8" ry="6.5" transform="translate(192.021 240.981)" fill="#5499b8" opacity="0.27"/>
        </g>
      </g>
      <g id="Component_5_1-2" data-name="Component 5 – 1" transform="translate(0 18.727)">
        <g id="Group_5-2" data-name="Group 5" transform="translate(284.801 385.985) rotate(-100)" opacity="0.57">
          <g id="Component_2_1-2" data-name="Component 2 – 1" transform="translate(0 0)">
            <path id="Path_1-2" data-name="Path 1" d="M11.044,0c6.244.187,11.424,6,11.571,12.983s-4.8,12.493-11.041,12.306S.149,19.294,0,12.311,4.8-.182,11.044,0Z" transform="translate(163.57 179.71)" fill="#5499b8" opacity="0.27"/>
            <path id="Path_2-2" data-name="Path 2" d="M12.177,0a13.1,13.1,0,0,1,12.757,12.51A11.607,11.607,0,0,1,12.76,24.373,13.1,13.1,0,0,1,0,11.863,11.607,11.607,0,0,1,12.177,0Z" transform="translate(0 11.128)" fill="#5499b8" opacity="0.27"/>
            <path id="Path_3-2" data-name="Path 3" d="M21.919.008a23.844,23.844,0,0,1,23,23,21.128,21.128,0,0,1-21.912,21.84,23.844,23.844,0,0,1-23-23A21.128,21.128,0,0,1,21.919.008Z" transform="translate(209.971)" fill="#5499b8" opacity="0.27"/>
            <path id="Path_4-2" data-name="Path 4" d="M16.271.006c9.186.236,16.8,7.176,17,15.5S26.191,30.385,17,30.149.207,22.973,0,14.65,7.084-.23,16.271.006Z" transform="translate(99.355 55.909)" fill="#5499b8" opacity="0.27"/>
            <path id="Path_5-2" data-name="Path 5" d="M16.271.006c9.186.236,16.8,7.176,17,15.5S26.191,30.385,17,30.149.207,22.973,0,14.65,7.084-.23,16.271.006Z" transform="translate(318.326 73.125)" fill="#5499b8" opacity="0.27"/>
            <path id="Path_6-2" data-name="Path 6" d="M7.694,0c4.333.111,7.915,3.021,8,6.5S12.335,12.711,8,12.6.087,9.579,0,6.1,3.361-.108,7.694,0Z" transform="translate(241.172 95.113)" fill="#5499b8" opacity="0.27"/>
            <path id="Path_7-2" data-name="Path 7" d="M7.694,0c4.333.111,7.915,3.021,8,6.5S12.335,12.711,8,12.6.087,9.579,0,6.1,3.361-.108,7.694,0Z" transform="translate(59.966 196.535)" fill="#5499b8" opacity="0.27"/>
            <path id="Path_8-2" data-name="Path 8" d="M7.694,0c4.333.111,7.915,3.021,8,6.5S12.335,12.711,8,12.6.087,9.579,0,6.1,3.361-.108,7.694,0Z" transform="translate(89.862 146.453)" fill="#5499b8" opacity="0.27"/>
            <path id="Path_9-2" data-name="Path 9" d="M7.694,0c4.333.111,7.915,3.021,8,6.5S12.335,12.711,8,12.6.087,9.579,0,6.1,3.361-.108,7.694,0Z" transform="translate(319.907 135.413)" fill="#5499b8" opacity="0.27"/>
          </g>
        </g>
        <g id="Group_2-2" data-name="Group 2" transform="matrix(0.454, -0.891, 0.891, 0.454, 0, 291.644)">
          <ellipse id="Ellipse_1-9" data-name="Ellipse 1" cx="30.5" cy="29.5" rx="30.5" ry="29.5" transform="translate(145.928)" fill="rgba(19,133,233,0.45)" opacity="0.27"/>
          <ellipse id="Ellipse_2-9" data-name="Ellipse 2" cx="30.5" cy="29.5" rx="30.5" ry="29.5" transform="translate(0 115)" fill="rgba(19,133,233,0.45)" opacity="0.27"/>
          <circle id="Ellipse_3-9" data-name="Ellipse 3" cx="23" cy="23" r="23" transform="translate(193.953 107)" fill="rgba(19,133,233,0.45)" opacity="0.27"/>
          <ellipse id="Ellipse_4-9" data-name="Ellipse 4" cx="17" cy="15.5" rx="17" ry="15.5" transform="translate(103.425 99)" fill="rgba(19,133,233,0.45)" opacity="0.27"/>
          <ellipse id="Ellipse_5-9" data-name="Ellipse 5" cx="17" cy="15.5" rx="17" ry="15.5" transform="translate(293.319 92)" fill="rgba(19,133,233,0.45)" opacity="0.27"/>
          <ellipse id="Ellipse_6-9" data-name="Ellipse 6" cx="8" cy="6.5" rx="8" ry="6.5" transform="translate(229.822 86)" fill="rgba(19,133,233,0.45)" opacity="0.27"/>
          <ellipse id="Ellipse_9-9" data-name="Ellipse 9" cx="8" cy="6.5" rx="8" ry="6.5" transform="translate(73.347 17)" fill="rgba(19,133,233,0.45)" opacity="0.27"/>
          <ellipse id="Ellipse_10-9" data-name="Ellipse 10" cx="8" cy="6.5" rx="8" ry="6.5" transform="translate(99.427 46)" fill="rgba(19,133,233,0.45)" opacity="0.27"/>
          <ellipse id="Ellipse_8-9" data-name="Ellipse 8" cx="8" cy="6.5" rx="8" ry="6.5" transform="translate(293.319 59)" fill="rgba(19,133,233,0.45)" opacity="0.27"/>
        </g>
        <g id="Group_7-2" data-name="Group 7" transform="translate(51.175 192.907) rotate(-69)">
          <ellipse id="Ellipse_1-10" data-name="Ellipse 1" cx="30.5" cy="29.5" rx="30.5" ry="29.5" transform="translate(66)" fill="rgba(19,133,233,0.45)" opacity="0.27"/>
          <ellipse id="Ellipse_2-10" data-name="Ellipse 2" cx="30.5" cy="29.5" rx="30.5" ry="29.5" transform="translate(0 182)" fill="rgba(19,133,233,0.45)" opacity="0.27"/>
          <circle id="Ellipse_3-10" data-name="Ellipse 3" cx="23" cy="23" r="23" transform="translate(93 174)" fill="rgba(19,133,233,0.45)" opacity="0.27"/>
          <ellipse id="Ellipse_4-10" data-name="Ellipse 4" cx="17" cy="15.5" rx="17" ry="15.5" transform="translate(52 145)" fill="rgba(19,133,233,0.45)" opacity="0.27"/>
          <ellipse id="Ellipse_5-10" data-name="Ellipse 5" cx="17" cy="15.5" rx="17" ry="15.5" transform="translate(147 135)" fill="rgba(19,133,233,0.45)" opacity="0.27"/>
          <ellipse id="Ellipse_6-10" data-name="Ellipse 6" cx="8" cy="6.5" rx="8" ry="6.5" transform="translate(122 122)" fill="rgba(19,133,233,0.45)" opacity="0.27"/>
          <ellipse id="Ellipse_9-10" data-name="Ellipse 9" cx="8" cy="6.5" rx="8" ry="6.5" transform="translate(39 17)" fill="rgba(19,133,233,0.45)" opacity="0.27"/>
          <ellipse id="Ellipse_10-10" data-name="Ellipse 10" cx="8" cy="6.5" rx="8" ry="6.5" transform="translate(53 65)" fill="rgba(19,133,233,0.45)" opacity="0.27"/>
          <ellipse id="Ellipse_8-10" data-name="Ellipse 8" cx="8" cy="6.5" rx="8" ry="6.5" transform="translate(147 83)" fill="rgba(19,133,233,0.45)" opacity="0.27"/>
        </g>
        <g id="Group_3-2" data-name="Group 3" transform="translate(5.186 221.952) rotate(-11)">
          <ellipse id="Ellipse_1-11" data-name="Ellipse 1" cx="30.5" cy="29.5" rx="30.5" ry="29.5" transform="translate(119 92)" fill="#b4e1f5" opacity="0.27"/>
          <ellipse id="Ellipse_2-11" data-name="Ellipse 2" cx="30.5" cy="29.5" rx="30.5" ry="29.5" transform="translate(0)" fill="#b4e1f5" opacity="0.27"/>
          <circle id="Ellipse_3-11" data-name="Ellipse 3" cx="23" cy="23" r="23" transform="translate(161 21)" fill="#b4e1f5" opacity="0.27"/>
          <ellipse id="Ellipse_4-11" data-name="Ellipse 4" cx="17" cy="15.5" rx="17" ry="15.5" transform="translate(86 37)" fill="#b4e1f5" opacity="0.27"/>
          <ellipse id="Ellipse_5-11" data-name="Ellipse 5" cx="17" cy="15.5" rx="17" ry="15.5" transform="translate(245 43)" fill="#b4e1f5" opacity="0.27"/>
          <ellipse id="Ellipse_6-11" data-name="Ellipse 6" cx="8" cy="6.5" rx="8" ry="6.5" transform="translate(194 64)" fill="#b4e1f5" opacity="0.27"/>
          <ellipse id="Ellipse_9-11" data-name="Ellipse 9" cx="8" cy="6.5" rx="8" ry="6.5" transform="translate(62 121)" fill="#b4e1f5" opacity="0.27"/>
          <ellipse id="Ellipse_10-11" data-name="Ellipse 10" cx="8" cy="6.5" rx="8" ry="6.5" transform="translate(84 99)" fill="#b4e1f5" opacity="0.27"/>
          <ellipse id="Ellipse_8-11" data-name="Ellipse 8" cx="8" cy="6.5" rx="8" ry="6.5" transform="translate(245 87)" fill="#b4e1f5" opacity="0.27"/>
        </g>
      </g>
      <g id="Component_1_1-2" data-name="Component 1 – 1" transform="translate(172.691 171.148) rotate(-11)">
        <ellipse id="Ellipse_1-12" data-name="Ellipse 1" cx="30.5" cy="29.5" rx="30.5" ry="29.5" transform="translate(80 105)" fill="#b4e1f5" opacity="0.27"/>
        <ellipse id="Ellipse_2-12" data-name="Ellipse 2" cx="25" cy="24.5" rx="25" ry="24.5" fill="#b4e1f5" opacity="0.27"/>
        <circle id="Ellipse_3-12" data-name="Ellipse 3" cx="23" cy="23" r="23" transform="translate(111 11)" fill="#b4e1f5" opacity="0.27"/>
        <ellipse id="Ellipse_4-12" data-name="Ellipse 4" cx="17" cy="15.5" rx="17" ry="15.5" transform="translate(61 34)" fill="#b4e1f5" opacity="0.27"/>
        <ellipse id="Ellipse_5-12" data-name="Ellipse 5" cx="17" cy="15.5" rx="17" ry="15.5" transform="translate(173 41)" fill="#b4e1f5" opacity="0.27"/>
        <ellipse id="Ellipse_6-12" data-name="Ellipse 6" cx="8" cy="6.5" rx="8" ry="6.5" transform="translate(141 65)" fill="#b4e1f5" opacity="0.27"/>
        <ellipse id="Ellipse_9-12" data-name="Ellipse 9" cx="8" cy="6.5" rx="8" ry="6.5" transform="translate(45 134)" fill="#b4e1f5" opacity="0.27"/>
        <ellipse id="Ellipse_10-12" data-name="Ellipse 10" cx="8" cy="6.5" rx="8" ry="6.5" transform="translate(61 105)" fill="#b4e1f5" opacity="0.27"/>
        <ellipse id="Ellipse_8-12" data-name="Ellipse 8" cx="8" cy="6.5" rx="8" ry="6.5" transform="translate(173 92)" fill="#b4e1f5" opacity="0.27"/>
      </g>
    </g>
  </g>
  <text id="FIZZ" transform="translate(0 304.345)" fill="#abab19" font-size="57" font-family="Poppins-Bold, Poppins" font-weight="700"><tspan x="0" y="0">FIZZ</tspan></text>
  <text id="BUZZ" transform="translate(116 304.345)" fill="#070707" font-size="57" font-family="Poppins-Bold, Poppins" font-weight="700"><tspan x="0" y="0">BUZZ</tspan></text>
  <text id="MULTIPLES_OF_3_5" data-name="MULTIPLES OF 3 &amp; 5" transform="translate(2 334.345)" font-size="27" font-family="Poppins-MediumItalic, Poppins" font-weight="500" font-style="italic"><tspan x="0" y="0">MULTIPLES OF 3 &amp; 5</tspan></text>
</svg>
